  0
SECTION
  2
HEADER
  9
$MEASUREMENT
  70
  0
  9
$INSUNITS
  70
  1
  0
ENDSEC
  0
SECTION
  2
TABLES
  0
TABLE
  2
LTYPE
 70
     1
  0
LTYPE
  2
CONTINUOUS
 70
    64
  3
Ausgezogene Linie
 72
    65
 73
     0
 40
0.0
  0
ENDTAB
  0
TABLE
  2
LAYER
 70
     3
  0
LAYER
  2
Contour
 70
    64
 62
     7
  6
CONTINUOUS
  0
LAYER
  2
Engraving
 70
    64
 62
     7
  6
CONTINUOUS
  0
LAYER
  2
Reference_points
 70
    64
 62
     1
  6
CONTINUOUS
  0
ENDTAB
  0
TABLE
  2
STYLE
 70
     1
  0
STYLE
  2
TXT
 70
    64
 40
0.0
 41
1.0
 50
0.0
 71
     0
 42
3.500000
  3
TXT
  0
ENDTAB
  0
ENDSEC
  0
SECTION
  2
BLOCKS
  0
ENDSEC
  0
SECTION
  2
ENTITIES
  0
LINE
  8
Contour
 62
   7
 39
0.004
  6
CONTINUOUS
 10
0.78740
 20
5.05906
 30
 0
 11
0.00000
 21
5.05906
  0
LINE
  8
Contour
 62
   7
 39
0.004
  6
CONTINUOUS
 10
0.00000
 20
5.05906
 30
 0
 11
0.00000
 21
5.05906
  0
LINE
  8
Contour
 62
   7
 39
0.004
  6
CONTINUOUS
 10
0.00000
 20
5.05906
 30
 0
 11
0.00000
 21
0.00000
  0
LINE
  8
Contour
 62
   7
 39
0.004
  6
CONTINUOUS
 10
0.00000
 20
0.00000
 30
 0
 11
0.00000
 21
0.00000
  0
LINE
  8
Contour
 62
   7
 39
0.004
  6
CONTINUOUS
 10
0.00000
 20
0.00000
 30
 0
 11
0.78740
 21
0.00000
  0
LINE
  8
Contour
 62
   7
 39
0.004
  6
CONTINUOUS
 10
0.78740
 20
0.00000
 30
 0
 11
0.78740
 21
0.00000
  0
LINE
  8
Contour
 62
   7
 39
0.004
  6
CONTINUOUS
 10
0.78740
 20
0.00000
 30
 0
 11
0.78740
 21
5.05906
  0
LINE
  8
Contour
 62
   7
 39
0.004
  6
CONTINUOUS
 10
0.78740
 20
5.05906
 30
 0
 11
0.78740
 21
5.05906
  0
LINE
  8
Engraving
 62
   7
 39
0.016
  6
CONTINUOUS
 10
0.38882
 20
4.13634
 30
 0
 11
0.41122
 21
4.15878
  0
LINE
  8
Engraving
 62
   7
 39
0.016
  6
CONTINUOUS
 10
0.41122
 20
4.15878
 30
 0
 11
0.41122
 21
4.05787
  0
LINE
  8
Engraving
 62
   7
 39
0.016
  6
CONTINUOUS
 10
0.37307
 20
3.64870
 30
 0
 11
0.37980
 21
3.65429
  0
ARC
  8
Engraving
 62
   7
 39
0.016
  6
CONTINUOUS
 10
0.39795
 20
3.63319
 30
 0
 40
0.02783
 50
319.30201
 51
130.69799
  0
LINE
  8
Engraving
 62
   7
 39
0.016
  6
CONTINUOUS
 10
0.41906
 20
3.61504
 30
 0
 11
0.37197
 21
3.55787
  0
LINE
  8
Engraving
 62
   7
 39
0.016
  6
CONTINUOUS
 10
0.37197
 20
3.55787
 30
 0
 11
0.42803
 21
3.55787
  0
ARC
  8
Engraving
 62
   7
 39
0.016
  6
CONTINUOUS
 10
0.40051
 20
3.13157
 30
 0
 40
0.02945
 50
450.45958
 51
157.03264
  0
ARC
  8
Engraving
 62
   7
 39
0.016
  6
CONTINUOUS
 10
0.40028
 20
3.13469
 30
 0
 40
0.02634
 50
270.00000
 51
90.00000
  0
ARC
  8
Engraving
 62
   7
 39
0.016
  6
CONTINUOUS
 10
0.40028
 20
3.08201
 30
 0
 40
0.02634
 50
270.00000
 51
90.00000
  0
ARC
  8
Engraving
 62
   7
 39
0.016
  6
CONTINUOUS
 10
0.40047
 20
3.08681
 30
 0
 40
0.03118
 50
209.73591
 51
-90.36171
  0
LINE
  8
Engraving
 62
   7
 39
0.016
  6
CONTINUOUS
 10
0.40559
 20
2.65878
 30
 0
 11
0.37197
 21
2.57469
  0
LINE
  8
Engraving
 62
   7
 39
0.016
  6
CONTINUOUS
 10
0.37197
 20
2.57469
 30
 0
 11
0.42803
 21
2.57469
  0
LINE
  8
Engraving
 62
   7
 39
0.016
  6
CONTINUOUS
 10
0.42803
 20
2.57469
 30
 0
 11
0.41681
 21
2.57469
  0
LINE
  8
Engraving
 62
   7
 39
0.016
  6
CONTINUOUS
 10
0.41681
 20
2.57469
 30
 0
 11
0.41681
 21
2.59150
  0
LINE
  8
Engraving
 62
   7
 39
0.016
  6
CONTINUOUS
 10
0.41681
 20
2.59150
 30
 0
 11
0.41681
 21
2.55787
  0
ARC
  8
Engraving
 62
   7
 39
0.016
  6
CONTINUOUS
 10
0.40000
 20
0.48480
 30
 0
 40
0.02913
 50
270.00000
 51
90.00000
  0
ARC
  8
Engraving
 62
   7
 39
0.016
  6
CONTINUOUS
 10
0.40000
 20
0.48476
 30
 0
 40
0.02913
 50
90.00000
 51
-90.00000
  0
ARC
  8
Engraving
 62
   7
 39
0.016
  6
CONTINUOUS
 10
0.40000
 20
0.53748
 30
 0
 40
0.02354
 50
-90.00000
 51
90.00000
  0
ARC
  8
Engraving
 62
   7
 39
0.016
  6
CONTINUOUS
 10
0.40000
 20
0.53748
 30
 0
 40
0.02354
 50
90.00000
 51
270.00000
  0
LINE
  8
Engraving
 62
   7
 39
0.016
  6
CONTINUOUS
 10
0.37197
 20
1.04197
 30
 0
 11
0.37197
 21
1.05878
  0
LINE
  8
Engraving
 62
   7
 39
0.016
  6
CONTINUOUS
 10
0.37197
 20
1.05878
 30
 0
 11
0.42803
 21
1.05878
  0
LINE
  8
Engraving
 62
   7
 39
0.016
  6
CONTINUOUS
 10
0.42803
 20
1.05878
 30
 0
 11
0.38319
 21
0.95787
  0
ARC
  8
Engraving
 62
   7
 39
0.016
  6
CONTINUOUS
 10
0.40000
 20
1.49039
 30
 0
 40
0.02913
 50
360.00000
 51
180.00000
  0
LINE
  8
Engraving
 62
   7
 39
0.016
  6
CONTINUOUS
 10
0.42917
 20
1.49039
 30
 0
 11
0.42917
 21
1.48476
  0
ARC
  8
Engraving
 62
   7
 39
0.016
  6
CONTINUOUS
 10
0.40004
 20
1.48476
 30
 0
 40
0.02913
 50
180.00000
 51
0.00000
  0
LINE
  8
Engraving
 62
   7
 39
0.016
  6
CONTINUOUS
 10
0.37087
 20
1.48476
 30
 0
 11
0.37087
 21
1.52850
  0
ARC
  8
Engraving
 62
   7
 39
0.016
  6
CONTINUOUS
 10
0.40189
 20
1.52976
 30
 0
 40
0.03106
 50
45.82139
 51
-177.67455
  0
LINE
  8
Engraving
 62
   7
 39
0.016
  6
CONTINUOUS
 10
0.42287
 20
2.05878
 30
 0
 11
0.37240
 21
2.05878
  0
LINE
  8
Engraving
 62
   7
 39
0.016
  6
CONTINUOUS
 10
0.37240
 20
2.05878
 30
 0
 11
0.37240
 21
2.01169
  0
ARC
  8
Engraving
 62
   7
 39
0.016
  6
CONTINUOUS
 10
0.39587
 20
1.98130
 30
 0
 40
0.03839
 50
444.82153
 51
127.66888
  0
ARC
  8
Engraving
 62
   7
 39
0.016
  6
CONTINUOUS
 10
0.39626
 20
1.98724
 30
 0
 40
0.03244
 50
315.73767
 51
84.56626
  0
ARC
  8
Engraving
 62
   7
 39
0.016
  6
CONTINUOUS
 10
0.39787
 20
1.98583
 30
 0
 40
0.03028
 50
208.59856
 51
-44.47340
  0
ARC
  8
Contour
 62
   7
 39
0.004
  6
CONTINUOUS
 10
0.22378
 20
0.13976
 30
 0
 40
0.04724
 50
450.00000
 51
162.69723
  0
LINE
  8
Contour
 62
   7
 39
0.004
  6
CONTINUOUS
 10
0.22378
 20
0.18701
 30
 0
 11
0.36283
 21
0.18701
  0
ARC
  8
Contour
 62
   7
 39
0.004
  6
CONTINUOUS
 10
0.36283
 20
0.13976
 30
 0
 40
0.04724
 50
377.30277
 51
90.00000
  0
ARC
  8
Contour
 62
   7
 39
0.004
  6
CONTINUOUS
 10
0.29331
 20
0.11811
 30
 0
 40
0.12008
 50
342.69977
 51
17.30023
  0
ARC
  8
Contour
 62
   7
 39
0.004
  6
CONTINUOUS
 10
0.36283
 20
0.09646
 30
 0
 40
0.04724
 50
270.00000
 51
-17.30277
  0
LINE
  8
Contour
 62
   7
 39
0.004
  6
CONTINUOUS
 10
0.36283
 20
0.04921
 30
 0
 11
0.22378
 21
0.04921
  0
ARC
  8
Contour
 62
   7
 39
0.004
  6
CONTINUOUS
 10
0.22378
 20
0.09646
 30
 0
 40
0.04724
 50
197.30277
 51
-90.00000
  0
ARC
  8
Contour
 62
   7
 39
0.004
  6
CONTINUOUS
 10
0.29331
 20
0.11811
 30
 0
 40
0.12008
 50
162.69977
 51
-162.69977
  0
ARC
  8
Contour
 62
   7
 39
0.004
  6
CONTINUOUS
 10
0.22378
 20
4.96260
 30
 0
 40
0.04724
 50
450.00000
 51
162.69723
  0
LINE
  8
Contour
 62
   7
 39
0.004
  6
CONTINUOUS
 10
0.22378
 20
5.00984
 30
 0
 11
0.36283
 21
5.00984
  0
ARC
  8
Contour
 62
   7
 39
0.004
  6
CONTINUOUS
 10
0.36283
 20
4.96260
 30
 0
 40
0.04724
 50
377.30277
 51
90.00000
  0
ARC
  8
Contour
 62
   7
 39
0.004
  6
CONTINUOUS
 10
0.29331
 20
4.94094
 30
 0
 40
0.12008
 50
342.69977
 51
17.30023
  0
ARC
  8
Contour
 62
   7
 39
0.004
  6
CONTINUOUS
 10
0.36283
 20
4.91929
 30
 0
 40
0.04724
 50
270.00000
 51
-17.30277
  0
LINE
  8
Contour
 62
   7
 39
0.004
  6
CONTINUOUS
 10
0.36283
 20
4.87205
 30
 0
 11
0.22378
 21
4.87205
  0
ARC
  8
Contour
 62
   7
 39
0.004
  6
CONTINUOUS
 10
0.22378
 20
4.91929
 30
 0
 40
0.04724
 50
197.30277
 51
-90.00000
  0
ARC
  8
Contour
 62
   7
 39
0.004
  6
CONTINUOUS
 10
0.29331
 20
4.94094
 30
 0
 40
0.12008
 50
162.69977
 51
-162.69977
  0
CIRCLE
  8
Contour
 62
   7
 39
0.004
  6
CONTINUOUS
 10
0.40000
 20
2.85000
 30
 0
 40
0.12008
  0
CIRCLE
  8
Contour
 62
   7
 39
0.004
  6
CONTINUOUS
 10
0.40000
 20
3.35000
 30
 0
 40
0.12008
  0
CIRCLE
  8
Contour
 62
   7
 39
0.004
  6
CONTINUOUS
 10
0.40000
 20
3.85000
 30
 0
 40
0.12008
  0
CIRCLE
  8
Contour
 62
   7
 39
0.004
  6
CONTINUOUS
 10
0.40000
 20
4.35000
 30
 0
 40
0.12008
  0
CIRCLE
  8
Contour
 62
   7
 39
0.004
  6
CONTINUOUS
 10
0.40000
 20
0.75000
 30
 0
 40
0.12008
  0
CIRCLE
  8
Contour
 62
   7
 39
0.004
  6
CONTINUOUS
 10
0.40000
 20
1.25000
 30
 0
 40
0.12008
  0
CIRCLE
  8
Contour
 62
   7
 39
0.004
  6
CONTINUOUS
 10
0.40000
 20
1.75000
 30
 0
 40
0.12008
  0
CIRCLE
  8
Contour
 62
   7
 39
0.004
  6
CONTINUOUS
 10
0.40000
 20
2.25000
 30
 0
 40
0.12008
  0
ENDSEC
  0
EOF
